Wavefont-HairlineRound.ufo
<glyph name="_2" format="2">
  <advance width="1"/>
  <unicode hex="102"/>
  <unicode hex="62"/>
  <outline>
    <component base="cap" xOffset="0" yOffset="0" />
    <component base="cap" xOffset="0" yOffset="19" />
    <contour>
      <point x="0" y="1" type="line"/>
      <point x="0" y="20" type="line"/>
      <point x="1" y="20" type="line"/>
      <point x="1" y="1" type="line"/>
    </contour>
  </outline>
</glyph>
<glyph name="_6" format="2">
  <advance width="1"/>
  <unicode hex="106"/>
  <unicode hex="64"/>
  <outline>
    <component base="cap" xOffset="0" yOffset="0" />
    <component base="cap" xOffset="0" yOffset="59" />
    <contour>
      <point x="0" y="1" type="line"/>
      <point x="0" y="60" type="line"/>
      <point x="1" y="60" type="line"/>
      <point x="1" y="1" type="line"/>
    </contour>
  </outline>
</glyph>
<glyph name="_11" format="2">
  <advance width="1"/>
  <unicode hex="10B"/>
  
  <outline>
    <component base="cap" xOffset="0" yOffset="0" />
    <component base="cap" xOffset="0" yOffset="109" />
    <contour>
      <point x="0" y="1" type="line"/>
      <point x="0" y="110" type="line"/>
      <point x="1" y="110" type="line"/>
      <point x="1" y="1" type="line"/>
    </contour>
  </outline>
</glyph>
<glyph name="_14" format="2">
	<unicode hex="010E"/>
	<unicode hex="2582"/>
	<unicode hex="0068"/>
	<advance width="1"/>
	<outline>
		<component base="cap"/>
		<component base="cap" yOffset="139"/>
		<contour>
			<point x="0" y="1" type="line"/>
			<point x="0" y="140" type="line"/>
			<point x="1" y="140" type="line"/>
			<point x="1" y="1" type="line"/>
		</contour>
	</outline>
</glyph>
<glyph name="_16" format="2">
	<unicode hex="0110"/>
	<unicode hex="0069"/>
	<advance width="1"/>
	<outline>
		<component base="cap"/>
		<component base="cap" yOffset="159"/>
		<contour>
			<point x="0" y="1" type="line"/>
			<point x="0" y="160" type="line"/>
			<point x="1" y="160" type="line"/>
			<point x="1" y="1" type="line"/>
		</contour>
	</outline>
</glyph>
<glyph name="_23" format="2">
  <advance width="1"/>
  <unicode hex="117"/>
  
  <outline>
    <component base="cap" xOffset="0" yOffset="0" />
    <component base="cap" xOffset="0" yOffset="229" />
    <contour>
      <point x="0" y="1" type="line"/>
      <point x="0" y="230" type="line"/>
      <point x="1" y="230" type="line"/>
      <point x="1" y="1" type="line"/>
    </contour>
  </outline>
</glyph>
<glyph name="_28" format="2">
  <advance width="1"/>
  <unicode hex="11C"/>
  <unicode hex="2583"/><unicode hex="6F"/>
  <outline>
    <component base="cap" xOffset="0" yOffset="0" />
    <component base="cap" xOffset="0" yOffset="279" />
    <contour>
      <point x="0" y="1" type="line"/>
      <point x="0" y="280" type="line"/>
      <point x="1" y="280" type="line"/>
      <point x="1" y="1" type="line"/>
    </contour>
  </outline>
</glyph>
<glyph name="_31" format="2">
	<unicode hex="011F"/>
	<advance width="1"/>
	<outline>
		<component base="cap"/>
		<component base="cap" yOffset="309"/>
		<contour>
			<point x="0" y="1" type="line"/>
			<point x="0" y="310" type="line"/>
			<point x="1" y="310" type="line"/>
			<point x="1" y="1" type="line"/>
		</contour>
	</outline>
</glyph>
<glyph name="_40" format="2">
  <advance width="1"/>
  <unicode hex="128"/>
  <unicode hex="34"/><unicode hex="75"/>
  <outline>
    <component base="cap" xOffset="0" yOffset="0" />
    <component base="cap" xOffset="0" yOffset="399" />
    <contour>
      <point x="0" y="1" type="line"/>
      <point x="0" y="400" type="line"/>
      <point x="1" y="400" type="line"/>
      <point x="1" y="1" type="line"/>
    </contour>
  </outline>
</glyph>
<glyph name="_43" format="2">
	<unicode hex="012B"/>
	<advance width="1"/>
	<outline>
		<component base="cap"/>
		<component base="cap" yOffset="429"/>
		<contour>
			<point x="0" y="1" type="line"/>
			<point x="0" y="430" type="line"/>
			<point x="1" y="430" type="line"/>
			<point x="1" y="1" type="line"/>
		</contour>
	</outline>
</glyph>
<glyph name="_45" format="2">
	<unicode hex="012D"/>
	<advance width="1"/>
	<outline>
		<component base="cap"/>
		<component base="cap" yOffset="449"/>
		<contour>
			<point x="0" y="1" type="line"/>
			<point x="0" y="450" type="line"/>
			<point x="1" y="450" type="line"/>
			<point x="1" y="1" type="line"/>
		</contour>
	</outline>
</glyph>
<glyph name="_50" format="2">
  <advance width="1"/>
  <unicode hex="132"/>
  <unicode hex="35"/><unicode hex="7A"/>
  <outline>
    <component base="cap" xOffset="0" yOffset="0" />
    <component base="cap" xOffset="0" yOffset="499" />
    <contour>
      <point x="0" y="1" type="line"/>
      <point x="0" y="500" type="line"/>
      <point x="1" y="500" type="line"/>
      <point x="1" y="1" type="line"/>
    </contour>
  </outline>
</glyph>
<glyph name="_56" format="2">
  <advance width="1"/>
  <unicode hex="138"/>
  <unicode hex="2585"/><unicode hex="43"/>
  <outline>
    <component base="cap" xOffset="0" yOffset="0" />
    <component base="cap" xOffset="0" yOffset="559" />
    <contour>
      <point x="0" y="1" type="line"/>
      <point x="0" y="560" type="line"/>
      <point x="1" y="560" type="line"/>
      <point x="1" y="1" type="line"/>
    </contour>
  </outline>
</glyph>
<glyph name="_58" format="2">
	<unicode hex="013A"/>
	<unicode hex="0044"/>
	<advance width="1"/>
	<outline>
		<component base="cap"/>
		<component base="cap" yOffset="579"/>
		<contour>
			<point x="0" y="1" type="line"/>
			<point x="0" y="580" type="line"/>
			<point x="1" y="580" type="line"/>
			<point x="1" y="1" type="line"/>
		</contour>
	</outline>
</glyph>
<glyph name="_60" format="2">
  <advance width="1"/>
  <unicode hex="13C"/>
  <unicode hex="36"/><unicode hex="45"/>
  <outline>
    <component base="cap" xOffset="0" yOffset="0" />
    <component base="cap" xOffset="0" yOffset="599" />
    <contour>
      <point x="0" y="1" type="line"/>
      <point x="0" y="600" type="line"/>
      <point x="1" y="600" type="line"/>
      <point x="1" y="1" type="line"/>
    </contour>
  </outline>
</glyph>
<glyph name="_77" format="2">
  <advance width="1"/>
  <unicode hex="14D"/>
  
  <outline>
    <component base="cap" xOffset="0" yOffset="0" />
    <component base="cap" xOffset="0" yOffset="769" />
    <contour>
      <point x="0" y="1" type="line"/>
      <point x="0" y="770" type="line"/>
      <point x="1" y="770" type="line"/>
      <point x="1" y="1" type="line"/>
    </contour>
  </outline>
</glyph>
<glyph name="_78" format="2">
  <advance width="1"/>
  <unicode hex="14E"/>
  <unicode hex="4E"/>
  <outline>
    <component base="cap" xOffset="0" yOffset="0" />
    <component base="cap" xOffset="0" yOffset="779" />
    <contour>
      <point x="0" y="1" type="line"/>
      <point x="0" y="780" type="line"/>
      <point x="1" y="780" type="line"/>
      <point x="1" y="1" type="line"/>
    </contour>
  </outline>
</glyph>
<glyph name="_80" format="2">
  <advance width="1"/>
  <unicode hex="150"/>
  <unicode hex="38"/><unicode hex="4F"/>
  <outline>
    <component base="cap" xOffset="0" yOffset="0" />
    <component base="cap" xOffset="0" yOffset="799" />
    <contour>
      <point x="0" y="1" type="line"/>
      <point x="0" y="800" type="line"/>
      <point x="1" y="800" type="line"/>
      <point x="1" y="1" type="line"/>
    </contour>
  </outline>
</glyph>
<glyph name="_90" format="2">
  <advance width="1"/>
  <unicode hex="15A"/>
  <unicode hex="39"/><unicode hex="54"/>
  <outline>
    <component base="cap" xOffset="0" yOffset="0" />
    <component base="cap" xOffset="0" yOffset="899" />
    <contour>
      <point x="0" y="1" type="line"/>
      <point x="0" y="900" type="line"/>
      <point x="1" y="900" type="line"/>
      <point x="1" y="1" type="line"/>
    </contour>
  </outline>
</glyph>
<glyph name="_93" format="2">
	<unicode hex="015D"/>
	<advance width="1"/>
	<outline>
		<component base="cap"/>
		<component base="cap" yOffset="929"/>
		<contour>
			<point x="0" y="1" type="line"/>
			<point x="0" y="930" type="line"/>
			<point x="1" y="930" type="line"/>
			<point x="1" y="1" type="line"/>
		</contour>
	</outline>
</glyph>
<glyph name="_96" format="2">
	<unicode hex="0160"/>
	<unicode hex="0057"/>
	<advance width="1"/>
	<outline>
		<component base="cap"/>
		<component base="cap" yOffset="959"/>
		<contour>
			<point x="0" y="1" type="line"/>
			<point x="0" y="960" type="line"/>
			<point x="1" y="960" type="line"/>
			<point x="1" y="1" type="line"/>
		</contour>
	</outline>
</glyph>
<glyph name="_101" format="2">
	<unicode hex="0165"/>
	<advance width="1"/>
	<outline>
		<component base="cap"/>
		<component base="cap" yOffset="1009"/>
		<contour>
			<point x="0" y="1" type="line"/>
			<point x="0" y="1010" type="line"/>
			<point x="1" y="1010" type="line"/>
			<point x="1" y="1" type="line"/>
		</contour>
	</outline>
</glyph>
<glyph name="_107" format="2">
  <advance width="1"/>
  <unicode hex="16B"/>
  
  <outline>
    <component base="cap" xOffset="0" yOffset="0" />
    <component base="cap" xOffset="0" yOffset="1069" />
    <contour>
      <point x="0" y="1" type="line"/>
      <point x="0" y="1070" type="line"/>
      <point x="1" y="1070" type="line"/>
      <point x="1" y="1" type="line"/>
    </contour>
  </outline>
</glyph>
<glyph name="_1.center" format="2">
	<unicode hex="0401"/>
	<advance width="1"/>
	<outline>
		<component base="cap" yOffset="495"/>
		<component base="cap" yOffset="504"/>
		<contour>
			<point x="0" y="496" type="line"/>
			<point x="0" y="505" type="line"/>
			<point x="1" y="505" type="line"/>
			<point x="1" y="496" type="line"/>
		</contour>
	</outline>
</glyph>
<glyph name="_2.center" format="2">
	<unicode hex="0402"/>
	<advance width="1"/>
	<outline>
		<component base="cap" yOffset="490"/>
		<component base="cap" yOffset="509"/>
		<contour>
			<point x="0" y="491" type="line"/>
			<point x="0" y="510" type="line"/>
			<point x="1" y="510" type="line"/>
			<point x="1" y="491" type="line"/>
		</contour>
	</outline>
</glyph>
<glyph name="_5.center" format="2">
	<unicode hex="0405"/>
	<advance width="1"/>
	<outline>
		<component base="cap" yOffset="475"/>
		<component base="cap" yOffset="524"/>
		<contour>
			<point x="0" y="476" type="line"/>
			<point x="0" y="525" type="line"/>
			<point x="1" y="525" type="line"/>
			<point x="1" y="476" type="line"/>
		</contour>
	</outline>
</glyph>
<glyph name="_8.center" format="2">
  <advance width="1"/>
  <unicode hex="408"/>
  
  <outline>
    <component base="cap" xOffset="0" yOffset="460" />
    <component base="cap" xOffset="0" yOffset="539" />
    <contour>
      <point x="0" y="461" type="line"/>
      <point x="0" y="540" type="line"/>
      <point x="1" y="540" type="line"/>
      <point x="1" y="461" type="line"/>
    </contour>
  </outline>
</glyph>
<glyph name="_10.center" format="2">
  <advance width="1"/>
  <unicode hex="40A"/>
  
  <outline>
    <component base="cap" xOffset="0" yOffset="450" />
    <component base="cap" xOffset="0" yOffset="549" />
    <contour>
      <point x="0" y="451" type="line"/>
      <point x="0" y="550" type="line"/>
      <point x="1" y="550" type="line"/>
      <point x="1" y="451" type="line"/>
    </contour>
  </outline>
</glyph>
<glyph name="_11.center" format="2">
	<unicode hex="040B"/>
	<advance width="1"/>
	<outline>
		<component base="cap" yOffset="445"/>
		<component base="cap" yOffset="554"/>
		<contour>
			<point x="0" y="446" type="line"/>
			<point x="0" y="555" type="line"/>
			<point x="1" y="555" type="line"/>
			<point x="1" y="446" type="line"/>
		</contour>
	</outline>
</glyph>
<glyph name="_12.center" format="2">
	<unicode hex="040C"/>
	<advance width="1"/>
	<outline>
		<component base="cap" yOffset="440"/>
		<component base="cap" yOffset="559"/>
		<contour>
			<point x="0" y="441" type="line"/>
			<point x="0" y="560" type="line"/>
			<point x="1" y="560" type="line"/>
			<point x="1" y="441" type="line"/>
		</contour>
	</outline>
</glyph>
<glyph name="_16.center" format="2">
	<unicode hex="0410"/>
	<advance width="1"/>
	<outline>
		<component base="cap" yOffset="420"/>
		<component base="cap" yOffset="579"/>
		<contour>
			<point x="0" y="421" type="line"/>
			<point x="0" y="580" type="line"/>
			<point x="1" y="580" type="line"/>
			<point x="1" y="421" type="line"/>
		</contour>
	</outline>
</glyph>
<glyph name="_17.center" format="2">
	<unicode hex="0411"/>
	<advance width="1"/>
	<outline>
		<component base="cap" yOffset="415"/>
		<component base="cap" yOffset="584"/>
		<contour>
			<point x="0" y="416" type="line"/>
			<point x="0" y="585" type="line"/>
			<point x="1" y="585" type="line"/>
			<point x="1" y="416" type="line"/>
		</contour>
	</outline>
</glyph>
<glyph name="_20.center" format="2">
  <advance width="1"/>
  <unicode hex="414"/>
  
  <outline>
    <component base="cap" xOffset="0" yOffset="400" />
    <component base="cap" xOffset="0" yOffset="599" />
    <contour>
      <point x="0" y="401" type="line"/>
      <point x="0" y="600" type="line"/>
      <point x="1" y="600" type="line"/>
      <point x="1" y="401" type="line"/>
    </contour>
  </outline>
</glyph>
<glyph name="_23.center" format="2">
	<unicode hex="0417"/>
	<advance width="1"/>
	<outline>
		<component base="cap" yOffset="385"/>
		<component base="cap" yOffset="614"/>
		<contour>
			<point x="0" y="386" type="line"/>
			<point x="0" y="615" type="line"/>
			<point x="1" y="615" type="line"/>
			<point x="1" y="386" type="line"/>
		</contour>
	</outline>
</glyph>
<glyph name="_28.center" format="2">
	<unicode hex="041C"/>
	<advance width="1"/>
	<outline>
		<component base="cap" yOffset="360"/>
		<component base="cap" yOffset="639"/>
		<contour>
			<point x="0" y="361" type="line"/>
			<point x="0" y="640" type="line"/>
			<point x="1" y="640" type="line"/>
			<point x="1" y="361" type="line"/>
		</contour>
	</outline>
</glyph>
<glyph name="_33.center" format="2">
	<unicode hex="0421"/>
	<advance width="1"/>
	<outline>
		<component base="cap" yOffset="335"/>
		<component base="cap" yOffset="664"/>
		<contour>
			<point x="0" y="336" type="line"/>
			<point x="0" y="665" type="line"/>
			<point x="1" y="665" type="line"/>
			<point x="1" y="336" type="line"/>
		</contour>
	</outline>
</glyph>
<glyph name="_34.center" format="2">
  <advance width="1"/>
  <unicode hex="422"/>
  
  <outline>
    <component base="cap" xOffset="0" yOffset="330" />
    <component base="cap" xOffset="0" yOffset="669" />
    <contour>
      <point x="0" y="331" type="line"/>
      <point x="0" y="670" type="line"/>
      <point x="1" y="670" type="line"/>
      <point x="1" y="331" type="line"/>
    </contour>
  </outline>
</glyph>
<glyph name="_38.center" format="2">
  <advance width="1"/>
  <unicode hex="426"/>
  
  <outline>
    <component base="cap" xOffset="0" yOffset="310" />
    <component base="cap" xOffset="0" yOffset="689" />
    <contour>
      <point x="0" y="311" type="line"/>
      <point x="0" y="690" type="line"/>
      <point x="1" y="690" type="line"/>
      <point x="1" y="311" type="line"/>
    </contour>
  </outline>
</glyph>
<glyph name="_39.center" format="2">
	<unicode hex="0427"/>
	<advance width="1"/>
	<outline>
		<component base="cap" yOffset="305"/>
		<component base="cap" yOffset="694"/>
		<contour>
			<point x="0" y="306" type="line"/>
			<point x="0" y="695" type="line"/>
			<point x="1" y="695" type="line"/>
			<point x="1" y="306" type="line"/>
		</contour>
	</outline>
</glyph>
<glyph name="_40.center" format="2">
  <advance width="1"/>
  <unicode hex="428"/>
  
  <outline>
    <component base="cap" xOffset="0" yOffset="300" />
    <component base="cap" xOffset="0" yOffset="699" />
    <contour>
      <point x="0" y="301" type="line"/>
      <point x="0" y="700" type="line"/>
      <point x="1" y="700" type="line"/>
      <point x="1" y="301" type="line"/>
    </contour>
  </outline>
</glyph>
<glyph name="_44.center" format="2">
	<unicode hex="042C"/>
	<advance width="1"/>
	<outline>
		<component base="cap" yOffset="280"/>
		<component base="cap" yOffset="719"/>
		<contour>
			<point x="0" y="281" type="line"/>
			<point x="0" y="720" type="line"/>
			<point x="1" y="720" type="line"/>
			<point x="1" y="281" type="line"/>
		</contour>
	</outline>
</glyph>
<glyph name="_47.center" format="2">
	<unicode hex="042F"/>
	<advance width="1"/>
	<outline>
		<component base="cap" yOffset="265"/>
		<component base="cap" yOffset="734"/>
		<contour>
			<point x="0" y="266" type="line"/>
			<point x="0" y="735" type="line"/>
			<point x="1" y="735" type="line"/>
			<point x="1" y="266" type="line"/>
		</contour>
	</outline>
</glyph>
<glyph name="_48.center" format="2">
	<unicode hex="0430"/>
	<advance width="1"/>
	<outline>
		<component base="cap" yOffset="260"/>
		<component base="cap" yOffset="739"/>
		<contour>
			<point x="0" y="261" type="line"/>
			<point x="0" y="740" type="line"/>
			<point x="1" y="740" type="line"/>
			<point x="1" y="261" type="line"/>
		</contour>
	</outline>
</glyph>
<glyph name="_49.center" format="2">
  <advance width="1"/>
  <unicode hex="431"/>
  
  <outline>
    <component base="cap" xOffset="0" yOffset="255" />
    <component base="cap" xOffset="0" yOffset="744" />
    <contour>
      <point x="0" y="256" type="line"/>
      <point x="0" y="745" type="line"/>
      <point x="1" y="745" type="line"/>
      <point x="1" y="256" type="line"/>
    </contour>
  </outline>
</glyph>
<glyph name="_51.center" format="2">
  <advance width="1"/>
  <unicode hex="433"/>
  
  <outline>
    <component base="cap" xOffset="0" yOffset="245" />
    <component base="cap" xOffset="0" yOffset="754" />
    <contour>
      <point x="0" y="246" type="line"/>
      <point x="0" y="755" type="line"/>
      <point x="1" y="755" type="line"/>
      <point x="1" y="246" type="line"/>
    </contour>
  </outline>
</glyph>
<glyph name="_52.center" format="2">
	<unicode hex="0434"/>
	<advance width="1"/>
	<outline>
		<component base="cap" yOffset="240"/>
		<component base="cap" yOffset="759"/>
		<contour>
			<point x="0" y="241" type="line"/>
			<point x="0" y="760" type="line"/>
			<point x="1" y="760" type="line"/>
			<point x="1" y="241" type="line"/>
		</contour>
	</outline>
</glyph>
<glyph name="_58.center" format="2">
	<unicode hex="043A"/>
	<advance width="1"/>
	<outline>
		<component base="cap" yOffset="210"/>
		<component base="cap" yOffset="789"/>
		<contour>
			<point x="0" y="211" type="line"/>
			<point x="0" y="790" type="line"/>
			<point x="1" y="790" type="line"/>
			<point x="1" y="211" type="line"/>
		</contour>
	</outline>
</glyph>
<glyph name="_65.center" format="2">
	<unicode hex="0441"/>
	<advance width="1"/>
	<outline>
		<component base="cap" yOffset="175"/>
		<component base="cap" yOffset="824"/>
		<contour>
			<point x="0" y="176" type="line"/>
			<point x="0" y="825" type="line"/>
			<point x="1" y="825" type="line"/>
			<point x="1" y="176" type="line"/>
		</contour>
	</outline>
</glyph>
<glyph name="_69.center" format="2">
	<unicode hex="0445"/>
	<advance width="1"/>
	<outline>
		<component base="cap" yOffset="155"/>
		<component base="cap" yOffset="844"/>
		<contour>
			<point x="0" y="156" type="line"/>
			<point x="0" y="845" type="line"/>
			<point x="1" y="845" type="line"/>
			<point x="1" y="156" type="line"/>
		</contour>
	</outline>
</glyph>
<glyph name="_72.center" format="2">
	<unicode hex="0448"/>
	<advance width="1"/>
	<outline>
		<component base="cap" yOffset="140"/>
		<component base="cap" yOffset="859"/>
		<contour>
			<point x="0" y="141" type="line"/>
			<point x="0" y="860" type="line"/>
			<point x="1" y="860" type="line"/>
			<point x="1" y="141" type="line"/>
		</contour>
	</outline>
</glyph>
<glyph name="_76.center" format="2">
  <advance width="1"/>
  <unicode hex="44C"/>
  
  <outline>
    <component base="cap" xOffset="0" yOffset="120" />
    <component base="cap" xOffset="0" yOffset="879" />
    <contour>
      <point x="0" y="121" type="line"/>
      <point x="0" y="880" type="line"/>
      <point x="1" y="880" type="line"/>
      <point x="1" y="121" type="line"/>
    </contour>
  </outline>
</glyph>
<glyph name="_79.center" format="2">
	<unicode hex="044F"/>
	<advance width="1"/>
	<outline>
		<component base="cap" yOffset="105"/>
		<component base="cap" yOffset="894"/>
		<contour>
			<point x="0" y="106" type="line"/>
			<point x="0" y="895" type="line"/>
			<point x="1" y="895" type="line"/>
			<point x="1" y="106" type="line"/>
		</contour>
	</outline>
</glyph>
<glyph name="_82.center" format="2">
	<unicode hex="0452"/>
	<advance width="1"/>
	<outline>
		<component base="cap" yOffset="90"/>
		<component base="cap" yOffset="909"/>
		<contour>
			<point x="0" y="91" type="line"/>
			<point x="0" y="910" type="line"/>
			<point x="1" y="910" type="line"/>
			<point x="1" y="91" type="line"/>
		</contour>
	</outline>
</glyph>
<glyph name="_87.center" format="2">
  <advance width="1"/>
  <unicode hex="457"/>
  
  <outline>
    <component base="cap" xOffset="0" yOffset="65" />
    <component base="cap" xOffset="0" yOffset="934" />
    <contour>
      <point x="0" y="66" type="line"/>
      <point x="0" y="935" type="line"/>
      <point x="1" y="935" type="line"/>
      <point x="1" y="66" type="line"/>
    </contour>
  </outline>
</glyph>
<glyph name="_89.center" format="2">
	<unicode hex="0459"/>
	<advance width="1"/>
	<outline>
		<component base="cap" yOffset="55"/>
		<component base="cap" yOffset="944"/>
		<contour>
			<point x="0" y="56" type="line"/>
			<point x="0" y="945" type="line"/>
			<point x="1" y="945" type="line"/>
			<point x="1" y="56" type="line"/>
		</contour>
	</outline>
</glyph>
<glyph name="_91.center" format="2">
  <advance width="1"/>
  <unicode hex="45B"/>
  
  <outline>
    <component base="cap" xOffset="0" yOffset="45" />
    <component base="cap" xOffset="0" yOffset="954" />
    <contour>
      <point x="0" y="46" type="line"/>
      <point x="0" y="955" type="line"/>
      <point x="1" y="955" type="line"/>
      <point x="1" y="46" type="line"/>
    </contour>
  </outline>
</glyph>
<glyph name="_92.center" format="2">
  <advance width="1"/>
  <unicode hex="45C"/>
  
  <outline>
    <component base="cap" xOffset="0" yOffset="40" />
    <component base="cap" xOffset="0" yOffset="959" />
    <contour>
      <point x="0" y="41" type="line"/>
      <point x="0" y="960" type="line"/>
      <point x="1" y="960" type="line"/>
      <point x="1" y="41" type="line"/>
    </contour>
  </outline>
</glyph>
<glyph name="_93.center" format="2">
	<unicode hex="045D"/>
	<advance width="1"/>
	<outline>
		<component base="cap" yOffset="35"/>
		<component base="cap" yOffset="964"/>
		<contour>
			<point x="0" y="36" type="line"/>
			<point x="0" y="965" type="line"/>
			<point x="1" y="965" type="line"/>
			<point x="1" y="36" type="line"/>
		</contour>
	</outline>
</glyph>
<glyph name="_96.center" format="2">
	<unicode hex="0460"/>
	<advance width="1"/>
	<outline>
		<component base="cap" yOffset="20"/>
		<component base="cap" yOffset="979"/>
		<contour>
			<point x="0" y="21" type="line"/>
			<point x="0" y="980" type="line"/>
			<point x="1" y="980" type="line"/>
			<point x="1" y="21" type="line"/>
		</contour>
	</outline>
</glyph>
<glyph name="_101.center" format="2">
  <advance width="1"/>
  <unicode hex="465"/>
  
  <outline>
    <component base="cap" xOffset="0" yOffset="-5" />
    <component base="cap" xOffset="0" yOffset="1004" />
    <contour>
      <point x="0" y="-5" type="line"/>
      <point x="0" y="1005" type="line"/>
      <point x="1" y="1005" type="line"/>
      <point x="1" y="-5" type="line"/>
    </contour>
  </outline>
</glyph>
<glyph name="_102.center" format="2">
  <advance width="1"/>
  <unicode hex="466"/>
  
  <outline>
    <component base="cap" xOffset="0" yOffset="-10" />
    <component base="cap" xOffset="0" yOffset="1009" />
    <contour>
      <point x="0" y="-10" type="line"/>
      <point x="0" y="1010" type="line"/>
      <point x="1" y="1010" type="line"/>
      <point x="1" y="-10" type="line"/>
    </contour>
  </outline>
</glyph>
<glyph name="_106.center" format="2">
  <advance width="1"/>
  <unicode hex="46A"/>
  
  <outline>
    <component base="cap" xOffset="0" yOffset="-30" />
    <component base="cap" xOffset="0" yOffset="1029" />
    <contour>
      <point x="0" y="-30" type="line"/>
      <point x="0" y="1030" type="line"/>
      <point x="1" y="1030" type="line"/>
      <point x="1" y="-30" type="line"/>
    </contour>
  </outline>
</glyph>
<glyph name="_12.clip" format="2">
  <advance width="1"/>
  
  <outline>
    <contour>
        <point x="0" y="93"/>

        <point x="26.999999999999996" y="120"/>
        <point x="60" y="120" type="curve" smooth="yes"/>
        <point x="-59" y="120" type="line"/>
        <point x="-25.999999999999996" y="120"/>

        <point x="1" y="93"/>
        <point x="1" y="60" type="curve" smooth="yes"/>
        <point x="1" y="60" type="line"/>
        <point x="1" y="26.999999999999996"/>

        <point x="-25.999999999999996" y="0"/>
        <point x="-59" y="0" type="curve" smooth="yes"/>
        <point x="60" y="0" type="line"/>
        <point x="26.999999999999996" y="0"/>

        <point x="0" y="26.999999999999996"/>
        <point x="0" y="60" type="curve" smooth="yes"/>
        <point x="0" y="60" type="line"/>
    </contour>
  </outline>
</glyph>
<glyph name="_13.clip" format="2">
  <advance width="1"/>
  
  <outline>
    <contour>
        <point x="0" y="100.75"/>

        <point x="29.249999999999996" y="130"/>
        <point x="65" y="130" type="curve" smooth="yes"/>
        <point x="-64" y="130" type="line"/>
        <point x="-28.249999999999996" y="130"/>

        <point x="1" y="100.75"/>
        <point x="1" y="65" type="curve" smooth="yes"/>
        <point x="1" y="65" type="line"/>
        <point x="1" y="29.249999999999996"/>

        <point x="-28.249999999999996" y="0"/>
        <point x="-64" y="0" type="curve" smooth="yes"/>
        <point x="65" y="0" type="line"/>
        <point x="29.249999999999996" y="0"/>

        <point x="0" y="29.249999999999996"/>
        <point x="0" y="65" type="curve" smooth="yes"/>
        <point x="0" y="65" type="line"/>
    </contour>
  </outline>
</glyph>
<glyph name="_15.clip" format="2">
  <advance width="1"/>
  
  <outline>
    <contour>
        <point x="0" y="116.25"/>

        <point x="33.75" y="150"/>
        <point x="75" y="150" type="curve" smooth="yes"/>
        <point x="-74" y="150" type="line"/>
        <point x="-32.75" y="150"/>

        <point x="1" y="116.25"/>
        <point x="1" y="75" type="curve" smooth="yes"/>
        <point x="1" y="75" type="line"/>
        <point x="1" y="33.75"/>

        <point x="-32.75" y="0"/>
        <point x="-74" y="0" type="curve" smooth="yes"/>
        <point x="75" y="0" type="line"/>
        <point x="33.75" y="0"/>

        <point x="0" y="33.75"/>
        <point x="0" y="75" type="curve" smooth="yes"/>
        <point x="0" y="75" type="line"/>
    </contour>
  </outline>
</glyph>
<glyph name="_2.clip.center" format="2">
	<advance width="1"/>
	<outline>
		<contour>
			<point x="0" y="505.5"/>
			<point x="4.5" y="510"/>
			<point x="10" y="510" type="curve" smooth="yes"/>
			<point x="-9" y="510" type="line"/>
			<point x="-3.5" y="510"/>
			<point x="1" y="505.5"/>
			<point x="1" y="500" type="curve" smooth="yes"/>
			<point x="1" y="500" type="line"/>
			<point x="1" y="494.5"/>
			<point x="-3.5" y="490"/>
			<point x="-9" y="490" type="curve" smooth="yes"/>
			<point x="10" y="490" type="line"/>
			<point x="4.5" y="490"/>
			<point x="0" y="494.5"/>
			<point x="0" y="500" type="curve" smooth="yes"/>
			<point x="0" y="500" type="line"/>
		</contour>
	</outline>
</glyph>
<glyph name="_21.clip.center" format="2">
  <advance width="1"/>
  
  <outline>
    <contour>
        <point x="0" y="557.75"/>

        <point x="47.24999999999999" y="605"/>
        <point x="105" y="605" type="curve" smooth="yes"/>
        <point x="-104" y="605" type="line"/>
        <point x="-46.24999999999999" y="605"/>

        <point x="1" y="557.75"/>
        <point x="1" y="500" type="curve" smooth="yes"/>
        <point x="1" y="500" type="line"/>
        <point x="1" y="442.25"/>

        <point x="-46.24999999999999" y="395"/>
        <point x="-104" y="395" type="curve" smooth="yes"/>
        <point x="105" y="395" type="line"/>
        <point x="47.24999999999999" y="395"/>

        <point x="0" y="442.25"/>
        <point x="0" y="500" type="curve" smooth="yes"/>
        <point x="0" y="500" type="line"/>
    </contour>
  </outline>
</glyph>
<glyph name="_23.clip.center" format="2">
  <advance width="1"/>
  
  <outline>
    <contour>
        <point x="0" y="563.25"/>

        <point x="51.74999999999999" y="615"/>
        <point x="115" y="615" type="curve" smooth="yes"/>
        <point x="-114" y="615" type="line"/>
        <point x="-50.74999999999999" y="615"/>

        <point x="1" y="563.25"/>
        <point x="1" y="500" type="curve" smooth="yes"/>
        <point x="1" y="500" type="line"/>
        <point x="1" y="436.75"/>

        <point x="-50.74999999999999" y="385"/>
        <point x="-114" y="385" type="curve" smooth="yes"/>
        <point x="115" y="385" type="line"/>
        <point x="51.74999999999999" y="385"/>

        <point x="0" y="436.75"/>
        <point x="0" y="500" type="curve" smooth="yes"/>
        <point x="0" y="500" type="line"/>
    </contour>
  </outline>
</glyph>
<glyph name="_24.clip.center" format="2">
	<advance width="1"/>
	<outline>
		<contour>
			<point x="0" y="566"/>
			<point x="53" y="620"/>
			<point x="120" y="620" type="curve" smooth="yes"/>
			<point x="-119" y="620" type="line"/>
			<point x="-52" y="620"/>
			<point x="1" y="566"/>
			<point x="1" y="500" type="curve" smooth="yes"/>
			<point x="1" y="500" type="line"/>
			<point x="1" y="434"/>
			<point x="-52" y="380"/>
			<point x="-119" y="380" type="curve" smooth="yes"/>
			<point x="120" y="380" type="line"/>
			<point x="53" y="380"/>
			<point x="0" y="434"/>
			<point x="0" y="500" type="curve" smooth="yes"/>
			<point x="0" y="500" type="line"/>
		</contour>
	</outline>
</glyph>
<glyph name="_24.clip" format="2">
  <advance width="1"/>
  
  <outline>
    <contour>
        <point x="0" y="186"/>

        <point x="53.99999999999999" y="240"/>
        <point x="120" y="240" type="curve" smooth="yes"/>
        <point x="-119" y="240" type="line"/>
        <point x="-52.99999999999999" y="240"/>

        <point x="1" y="186"/>
        <point x="1" y="120" type="curve" smooth="yes"/>
        <point x="1" y="120" type="line"/>
        <point x="1" y="53.99999999999999"/>

        <point x="-52.99999999999999" y="0"/>
        <point x="-119" y="0" type="curve" smooth="yes"/>
        <point x="120" y="0" type="line"/>
        <point x="53.99999999999999" y="0"/>

        <point x="0" y="53.99999999999999"/>
        <point x="0" y="120" type="curve" smooth="yes"/>
        <point x="0" y="120" type="line"/>
    </contour>
  </outline>
</glyph>
<glyph name="_26.clip" format="2">
  <advance width="1"/>
  
  <outline>
    <contour>
        <point x="0" y="201.5"/>

        <point x="58.49999999999999" y="260"/>
        <point x="130" y="260" type="curve" smooth="yes"/>
        <point x="-129" y="260" type="line"/>
        <point x="-57.49999999999999" y="260"/>

        <point x="1" y="201.5"/>
        <point x="1" y="130" type="curve" smooth="yes"/>
        <point x="1" y="130" type="line"/>
        <point x="1" y="58.49999999999999"/>

        <point x="-57.49999999999999" y="0"/>
        <point x="-129" y="0" type="curve" smooth="yes"/>
        <point x="130" y="0" type="line"/>
        <point x="58.49999999999999" y="0"/>

        <point x="0" y="58.49999999999999"/>
        <point x="0" y="130" type="curve" smooth="yes"/>
        <point x="0" y="130" type="line"/>
    </contour>
  </outline>
</glyph>
<glyph name="_27.clip" format="2">
  <advance width="1"/>
  
  <outline>
    <contour>
        <point x="0" y="209.25"/>

        <point x="60.74999999999999" y="270"/>
        <point x="135" y="270" type="curve" smooth="yes"/>
        <point x="-134" y="270" type="line"/>
        <point x="-59.74999999999999" y="270"/>

        <point x="1" y="209.25"/>
        <point x="1" y="135" type="curve" smooth="yes"/>
        <point x="1" y="135" type="line"/>
        <point x="1" y="60.74999999999999"/>

        <point x="-59.74999999999999" y="0"/>
        <point x="-134" y="0" type="curve" smooth="yes"/>
        <point x="135" y="0" type="line"/>
        <point x="60.74999999999999" y="0"/>

        <point x="0" y="60.74999999999999"/>
        <point x="0" y="135" type="curve" smooth="yes"/>
        <point x="0" y="135" type="line"/>
    </contour>
  </outline>
</glyph>
<glyph name="_28.clip.center" format="2">
  <advance width="1"/>
  
  <outline>
    <contour>
        <point x="0" y="577"/>

        <point x="62.99999999999999" y="640"/>
        <point x="140" y="640" type="curve" smooth="yes"/>
        <point x="-139" y="640" type="line"/>
        <point x="-61.99999999999999" y="640"/>

        <point x="1" y="577"/>
        <point x="1" y="500" type="curve" smooth="yes"/>
        <point x="1" y="500" type="line"/>
        <point x="1" y="423"/>

        <point x="-61.99999999999999" y="360"/>
        <point x="-139" y="360" type="curve" smooth="yes"/>
        <point x="140" y="360" type="line"/>
        <point x="62.99999999999999" y="360"/>

        <point x="0" y="423"/>
        <point x="0" y="500" type="curve" smooth="yes"/>
        <point x="0" y="500" type="line"/>
    </contour>
  </outline>
</glyph>
<glyph name="_28.clip" format="2">
  <advance width="1"/>
  
  <outline>
    <contour>
        <point x="0" y="217"/>

        <point x="62.99999999999999" y="280"/>
        <point x="140" y="280" type="curve" smooth="yes"/>
        <point x="-139" y="280" type="line"/>
        <point x="-61.99999999999999" y="280"/>

        <point x="1" y="217"/>
        <point x="1" y="140" type="curve" smooth="yes"/>
        <point x="1" y="140" type="line"/>
        <point x="1" y="62.99999999999999"/>

        <point x="-61.99999999999999" y="0"/>
        <point x="-139" y="0" type="curve" smooth="yes"/>
        <point x="140" y="0" type="line"/>
        <point x="62.99999999999999" y="0"/>

        <point x="0" y="62.99999999999999"/>
        <point x="0" y="140" type="curve" smooth="yes"/>
        <point x="0" y="140" type="line"/>
    </contour>
  </outline>
</glyph>
<glyph name="_29.clip.center" format="2">
  <advance width="1"/>
  
  <outline>
    <contour>
        <point x="0" y="579.75"/>

        <point x="65.25" y="645"/>
        <point x="145" y="645" type="curve" smooth="yes"/>
        <point x="-144" y="645" type="line"/>
        <point x="-64.25" y="645"/>

        <point x="1" y="579.75"/>
        <point x="1" y="500" type="curve" smooth="yes"/>
        <point x="1" y="500" type="line"/>
        <point x="1" y="420.25"/>

        <point x="-64.25" y="355"/>
        <point x="-144" y="355" type="curve" smooth="yes"/>
        <point x="145" y="355" type="line"/>
        <point x="65.25" y="355"/>

        <point x="0" y="420.25"/>
        <point x="0" y="500" type="curve" smooth="yes"/>
        <point x="0" y="500" type="line"/>
    </contour>
  </outline>
</glyph>
<glyph name="_29.clip" format="2">
  <advance width="1"/>
  
  <outline>
    <contour>
        <point x="0" y="224.75"/>

        <point x="65.25" y="290"/>
        <point x="145" y="290" type="curve" smooth="yes"/>
        <point x="-144" y="290" type="line"/>
        <point x="-64.25" y="290"/>

        <point x="1" y="224.75"/>
        <point x="1" y="145" type="curve" smooth="yes"/>
        <point x="1" y="145" type="line"/>
        <point x="1" y="65.25"/>

        <point x="-64.25" y="0"/>
        <point x="-144" y="0" type="curve" smooth="yes"/>
        <point x="145" y="0" type="line"/>
        <point x="65.25" y="0"/>

        <point x="0" y="65.25"/>
        <point x="0" y="145" type="curve" smooth="yes"/>
        <point x="0" y="145" type="line"/>
    </contour>
  </outline>
</glyph>
<glyph name="_31.clip.center" format="2">
  <advance width="1"/>
  
  <outline>
    <contour>
        <point x="0" y="585.25"/>

        <point x="69.75" y="655"/>
        <point x="155" y="655" type="curve" smooth="yes"/>
        <point x="-154" y="655" type="line"/>
        <point x="-68.75" y="655"/>

        <point x="1" y="585.25"/>
        <point x="1" y="500" type="curve" smooth="yes"/>
        <point x="1" y="500" type="line"/>
        <point x="1" y="414.75"/>

        <point x="-68.75" y="345"/>
        <point x="-154" y="345" type="curve" smooth="yes"/>
        <point x="155" y="345" type="line"/>
        <point x="69.75" y="345"/>

        <point x="0" y="414.75"/>
        <point x="0" y="500" type="curve" smooth="yes"/>
        <point x="0" y="500" type="line"/>
    </contour>
  </outline>
</glyph>
<glyph name="_31.clip" format="2">
	<advance width="1"/>
	<outline>
		<contour>
			<point x="0" y="240.25"/>
			<point x="69.75" y="310"/>
			<point x="155" y="310" type="curve" smooth="yes"/>
			<point x="-154" y="310" type="line"/>
			<point x="-68.75" y="310"/>
			<point x="1" y="240.25"/>
			<point x="1" y="155" type="curve" smooth="yes"/>
			<point x="1" y="155" type="line"/>
			<point x="1" y="69.75"/>
			<point x="-68.75" y="0"/>
			<point x="-154" y="0" type="curve" smooth="yes"/>
			<point x="155" y="0" type="line"/>
			<point x="69.75" y="0"/>
			<point x="0" y="69.75"/>
			<point x="0" y="155" type="curve" smooth="yes"/>
			<point x="0" y="155" type="line"/>
		</contour>
	</outline>
</glyph>
<glyph name="_33.clip.center" format="2">
  <advance width="1"/>
  
  <outline>
    <contour>
        <point x="0" y="590.75"/>

        <point x="74.24999999999999" y="665"/>
        <point x="165" y="665" type="curve" smooth="yes"/>
        <point x="-164" y="665" type="line"/>
        <point x="-73.24999999999999" y="665"/>

        <point x="1" y="590.75"/>
        <point x="1" y="500" type="curve" smooth="yes"/>
        <point x="1" y="500" type="line"/>
        <point x="1" y="409.25"/>

        <point x="-73.24999999999999" y="335"/>
        <point x="-164" y="335" type="curve" smooth="yes"/>
        <point x="165" y="335" type="line"/>
        <point x="74.24999999999999" y="335"/>

        <point x="0" y="409.25"/>
        <point x="0" y="500" type="curve" smooth="yes"/>
        <point x="0" y="500" type="line"/>
    </contour>
  </outline>
</glyph>
<glyph name="_33.clip" format="2">
  <advance width="1"/>
  
  <outline>
    <contour>
        <point x="0" y="255.75"/>

        <point x="74.24999999999999" y="330"/>
        <point x="165" y="330" type="curve" smooth="yes"/>
        <point x="-164" y="330" type="line"/>
        <point x="-73.24999999999999" y="330"/>

        <point x="1" y="255.75"/>
        <point x="1" y="165" type="curve" smooth="yes"/>
        <point x="1" y="165" type="line"/>
        <point x="1" y="74.24999999999999"/>

        <point x="-73.24999999999999" y="0"/>
        <point x="-164" y="0" type="curve" smooth="yes"/>
        <point x="165" y="0" type="line"/>
        <point x="74.24999999999999" y="0"/>

        <point x="0" y="74.24999999999999"/>
        <point x="0" y="165" type="curve" smooth="yes"/>
        <point x="0" y="165" type="line"/>
    </contour>
  </outline>
</glyph>
<glyph name="_35.clip.center" format="2">
	<advance width="1"/>
	<outline>
		<contour>
			<point x="0" y="596.25"/>
			<point x="78.75" y="675"/>
			<point x="175" y="675" type="curve" smooth="yes"/>
			<point x="-174" y="675" type="line"/>
			<point x="-77.75" y="675"/>
			<point x="1" y="596.25"/>
			<point x="1" y="500" type="curve" smooth="yes"/>
			<point x="1" y="500" type="line"/>
			<point x="1" y="403.75"/>
			<point x="-77.75" y="325"/>
			<point x="-174" y="325" type="curve" smooth="yes"/>
			<point x="175" y="325" type="line"/>
			<point x="78.75" y="325"/>
			<point x="0" y="403.75"/>
			<point x="0" y="500" type="curve" smooth="yes"/>
			<point x="0" y="500" type="line"/>
		</contour>
	</outline>
</glyph>
<glyph name="_39.clip" format="2">
  <advance width="1"/>
  
  <outline>
    <contour>
        <point x="0" y="302.25"/>

        <point x="87.74999999999999" y="390"/>
        <point x="195" y="390" type="curve" smooth="yes"/>
        <point x="-194" y="390" type="line"/>
        <point x="-86.74999999999999" y="390"/>

        <point x="1" y="302.25"/>
        <point x="1" y="195" type="curve" smooth="yes"/>
        <point x="1" y="195" type="line"/>
        <point x="1" y="87.74999999999999"/>

        <point x="-86.74999999999999" y="0"/>
        <point x="-194" y="0" type="curve" smooth="yes"/>
        <point x="195" y="0" type="line"/>
        <point x="87.74999999999999" y="0"/>

        <point x="0" y="87.74999999999999"/>
        <point x="0" y="195" type="curve" smooth="yes"/>
        <point x="0" y="195" type="line"/>
    </contour>
  </outline>
</glyph>
<glyph name="_4.clip.center" format="2">
  <advance width="1"/>
  
  <outline>
    <contour>
        <point x="0" y="511"/>

        <point x="9" y="520"/>
        <point x="20" y="520" type="curve" smooth="yes"/>
        <point x="-19" y="520" type="line"/>
        <point x="-8" y="520"/>

        <point x="1" y="511"/>
        <point x="1" y="500" type="curve" smooth="yes"/>
        <point x="1" y="500" type="line"/>
        <point x="1" y="489"/>

        <point x="-8" y="480"/>
        <point x="-19" y="480" type="curve" smooth="yes"/>
        <point x="20" y="480" type="line"/>
        <point x="9" y="480"/>

        <point x="0" y="489"/>
        <point x="0" y="500" type="curve" smooth="yes"/>
        <point x="0" y="500" type="line"/>
    </contour>
  </outline>
</glyph>
<glyph name="_6.clip" format="2">
	<advance width="1"/>
	<outline>
		<contour>
			<point x="0" y="46.5"/>
			<point x="13.5" y="60"/>
			<point x="30" y="60" type="curve" smooth="yes"/>
			<point x="-29" y="60" type="line"/>
			<point x="-12.5" y="60"/>
			<point x="1" y="46.5"/>
			<point x="1" y="30" type="curve" smooth="yes"/>
			<point x="1" y="30" type="line"/>
			<point x="1" y="13.5"/>
			<point x="-12.5" y="0"/>
			<point x="-29" y="0" type="curve" smooth="yes"/>
			<point x="30" y="0" type="line"/>
			<point x="13.5" y="0"/>
			<point x="0" y="13.5"/>
			<point x="0" y="30" type="curve" smooth="yes"/>
			<point x="0" y="30" type="line"/>
		</contour>
	</outline>
</glyph>
